<svg width="18" height="18" viewBox="0 0 18 18" fill="none" xmlns="http://www.w3.org/2000/svg">
<path d="M15.364 2.63609C13.6641 0.936243 11.404 0 9 0C6.59601 0 4.33594 0.936243 2.63604 2.63609C0.936187 4.33593 0 6.59605 0 9.00009C0 11.404 0.936187 13.6641 2.63604 15.364C4.33594 17.0639 6.59601 18 9 18C11.404 18 13.6641 17.0638 15.364 15.364C17.0639 13.6641 18 11.404 18 9.00009C18.0001 6.59605 17.0639 4.33593 15.364 2.63609ZM7.66748 2.86204C7.80665 2.718 7.99449 2.63736 8.19648 2.63736H9.82312C10.0251 2.63736 10.213 2.71875 10.3518 2.86291C10.4908 3.00707 10.5632 3.19961 10.5557 3.40149L10.2869 9.48657C10.2716 9.89856 9.92372 10.2368 9.51137 10.2368H8.4888C8.07623 10.2368 7.72891 9.8981 7.71464 9.48587L7.46258 3.39911C7.45556 3.19723 7.52831 3.0062 7.66748 2.86204ZM9.01949 15.5922C8.07588 15.5922 7.36431 14.8472 7.36431 13.8591C7.36431 12.86 8.06752 12.1065 9 12.1065C9.96311 12.1065 10.6357 12.8272 10.6357 13.8591C10.6357 14.8796 9.97111 15.5922 9.01949 15.5922Z" fill="#CDDD00"/>
</svg>
