<svg width="20" height="25" viewBox="0 0 20 25" fill="none" xmlns="http://www.w3.org/2000/svg">
<path d="M18.9324 5.25302L13.9759 0.237069C13.8273 0.0866379 13.6211 0 13.4103 0H1.04906C0.543907 0 0 0.394828 0 1.26121V24.1379C0 24.4987 0.35863 24.8504 0.782852 24.9612C0.804148 24.9668 0.824593 24.975 0.846741 24.9793C0.913185 24.9927 0.980907 25 1.04906 25H18.1176C18.1858 25 18.2535 24.9927 18.3199 24.9793C18.3421 24.975 18.3625 24.9668 18.3838 24.9612C18.808 24.8504 19.1667 24.4987 19.1667 24.1379V6.025C19.1667 5.6944 19.1275 5.45043 18.9324 5.25302ZM17.6482 5.17241H14.0556V1.53664L17.6482 5.17241ZM1.04906 24.1379C1.01881 24.1379 0.991556 24.1267 0.964722 24.1168C0.898278 24.0849 0.851852 24.0177 0.851852 23.9384V17.6724H18.3148V23.9384C18.3148 24.0177 18.2684 24.0845 18.2019 24.1168C18.1751 24.1267 18.1479 24.1379 18.1176 24.1379H1.04906ZM0.851852 16.8103V1.26121C0.851852 1.16767 0.865907 0.862069 1.04906 0.862069H13.2284C13.2144 0.916379 13.2037 0.972414 13.2037 1.0306V6.03448H18.1483C18.2058 6.03448 18.2607 6.02371 18.3144 6.00948C18.3144 6.01595 18.3148 6.01853 18.3148 6.025V16.8103H0.851852Z" fill="#646464"/>
<path d="M6.61974 19.2863C6.4779 19.1687 6.31775 19.0799 6.13929 19.0213C5.96083 18.9622 5.78024 18.9329 5.59794 18.9329H4.36361V23.276H5.06255V21.7083H5.5809C5.80579 21.7083 6.01194 21.6751 6.19807 21.6083C6.3842 21.5415 6.5435 21.4471 6.67553 21.3256C6.80757 21.204 6.91022 21.0536 6.98433 20.8747C7.05801 20.6958 7.09507 20.4967 7.09507 20.2764C7.09507 20.0682 7.0512 19.8807 6.96388 19.7135C6.87657 19.5463 6.76157 19.4045 6.61974 19.2863ZM6.35481 20.7213C6.31179 20.8411 6.256 20.9342 6.18614 21.001C6.11629 21.0678 6.03962 21.1161 5.95614 21.1454C5.87266 21.1747 5.7879 21.1898 5.70272 21.1898H5.06213V19.4691H5.58601C5.76448 19.4691 5.90801 19.4976 6.01705 19.5545C6.12566 19.6114 6.21 19.682 6.27048 19.7665C6.33053 19.851 6.37014 19.9394 6.38974 20.0316C6.4089 20.1238 6.4187 20.2053 6.4187 20.276C6.4187 20.4532 6.3974 20.6014 6.35481 20.7213Z" fill="#646464"/>
<path d="M10.8416 19.5691C10.661 19.3769 10.4339 19.2221 10.1601 19.1066C9.8862 18.9911 9.56889 18.9329 9.20813 18.9329H7.91545V23.276H9.53993C9.59402 23.276 9.6775 23.2691 9.79037 23.2553C9.90282 23.2415 10.0272 23.2105 10.1631 23.1609C10.2989 23.1118 10.4395 23.0381 10.5851 22.9398C10.7308 22.8415 10.8616 22.707 10.9783 22.5359C11.095 22.3648 11.1908 22.1527 11.2666 21.8993C11.3424 21.6458 11.3804 21.3402 11.3804 20.9829C11.3804 20.7234 11.3356 20.4708 11.2466 20.2256C11.1567 19.9807 11.0221 19.7618 10.8416 19.5691ZM10.3321 22.2976C10.1226 22.604 9.781 22.757 9.30737 22.757H8.61439V19.4687H9.022C9.35593 19.4687 9.62767 19.5131 9.83722 19.6014C10.0468 19.6898 10.2129 19.8057 10.3351 19.9493C10.4574 20.0928 10.5396 20.2527 10.5826 20.4295C10.6252 20.6062 10.6465 20.7851 10.6465 20.9657C10.6465 21.5471 10.5417 21.9915 10.3321 22.2976Z" fill="#646464"/>
<path d="M12.3936 23.276H13.104V21.3195H14.8976V20.8363H13.104V19.4691H15.0778V18.9329H12.3936V23.276Z" fill="#646464"/>
<path d="M13.599 9.89702C13.2075 9.89702 12.7271 9.94874 12.1687 10.0513C11.3893 9.21426 10.5758 7.99185 10.0016 6.79185C10.5711 4.36555 10.2861 4.02202 10.1605 3.85995C10.0267 3.68754 9.83805 3.4078 9.62338 3.4078C9.53351 3.4078 9.28818 3.44918 9.19064 3.48193C8.94531 3.56469 8.81327 3.75607 8.70764 4.00564C8.40651 4.71814 8.81966 5.9328 9.24473 6.869C8.88142 8.3315 8.27192 10.0819 7.63133 11.5026C6.01707 12.2509 5.15968 12.9858 5.08216 13.6871C5.05405 13.9423 5.11368 14.3168 5.55707 14.6535C5.67846 14.7453 5.82071 14.794 5.96894 14.794C6.34162 14.794 6.71814 14.5052 7.15386 13.8858C7.4716 13.4341 7.81277 12.8181 8.16885 12.0535C9.30947 11.5487 10.7206 11.0927 11.9289 10.8371C12.6019 11.491 13.2046 11.822 13.7225 11.822C14.1041 11.822 14.4312 11.6444 14.668 11.3087C14.9147 10.9591 14.9709 10.6462 14.8342 10.3776C14.6702 10.0548 14.266 9.89702 13.599 9.89702ZM5.97831 14.0664C5.77897 13.9117 5.79047 13.8074 5.79473 13.7681C5.82114 13.5285 6.19212 13.1031 7.10233 12.5854C6.41233 13.875 6.04177 14.0462 5.97831 14.0664ZM9.4709 4.18624C9.48921 4.18021 9.91599 4.66081 9.51179 5.57245C8.90442 4.94357 9.42916 4.20047 9.4709 4.18624ZM8.59051 11.094C9.02283 10.0513 9.4249 8.90004 9.72944 7.83366C10.2078 8.70349 10.7823 9.54745 11.3573 10.2233C10.4484 10.4393 9.4807 10.744 8.59051 11.094ZM14.0854 10.8875C13.9542 11.0733 13.6697 11.0776 13.57 11.0776C13.343 11.0776 13.2582 10.941 12.9111 10.6707C13.1973 10.6337 13.4674 10.6242 13.6825 10.6242C14.0611 10.6242 14.1305 10.6806 14.1829 10.7091C14.1735 10.7397 14.1488 10.7975 14.0854 10.8875Z" fill="#646464"/>
</svg>
