<svg width="72" height="72" viewBox="0 0 72 72" fill="none" xmlns="http://www.w3.org/2000/svg">
<path d="M28.692 12.696C28.6324 12.1723 28.2381 11.7487 27.72 11.652L24.672 11.088C24.4957 10.5333 24.2709 9.99525 24 9.48L25.764 6.936C26.0781 6.5118 26.0781 5.9322 25.764 5.508C25.0609 4.6167 24.2553 3.81105 23.364 3.108C22.9398 2.7939 22.3602 2.7939 21.936 3.108L19.32 4.8C18.8048 4.5291 18.2667 4.30425 17.712 4.128L17.148 1.08C17.0513 0.5619 16.6276 0.16755 16.104 0.108C14.9725 -0.036 13.8274 -0.036 12.696 0.108C12.1723 0.16755 11.7487 0.5619 11.652 1.08L11.088 4.128C10.5333 4.30425 9.99525 4.5291 9.48 4.8L6.936 3.036C6.5118 2.7219 5.9322 2.7219 5.508 3.036C4.61655 3.73905 3.81105 4.5447 3.108 5.436C2.7939 5.8602 2.7939 6.4398 3.108 6.864L4.8 9.48C4.5291 9.99525 4.30425 10.5333 4.128 11.088L1.08 11.652C0.5619 11.7487 0.16755 12.1723 0.108 12.696C-0.036 13.8274 -0.036 14.9725 0.108 16.104C0.16755 16.6276 0.5619 17.0513 1.08 17.148L4.128 17.712C4.30425 18.2667 4.5291 18.8048 4.8 19.32L3.036 21.864C2.7219 22.2882 2.7219 22.8678 3.036 23.292C3.73905 24.1833 4.5447 24.9889 5.436 25.692C5.8602 26.0061 6.4398 26.0061 6.864 25.692L9.48 24C9.99525 24.2709 10.5333 24.4957 11.088 24.672L11.652 27.72C11.7487 28.2381 12.1723 28.6324 12.696 28.692C13.8274 28.836 14.9725 28.836 16.104 28.692C16.6276 28.6324 17.0513 28.2381 17.148 27.72L17.712 24.672C18.2667 24.4957 18.8048 24.2709 19.32 24L21.864 25.764C22.2882 26.0781 22.8678 26.0781 23.292 25.764C24.1833 25.0609 24.9889 24.2553 25.692 23.364C26.0061 22.9398 26.0061 22.3602 25.692 21.936L24 19.32C24.2709 18.8048 24.4957 18.2667 24.672 17.712L27.72 17.148C28.2381 17.0513 28.6324 16.6276 28.692 16.104C28.836 14.9725 28.836 13.8274 28.692 12.696ZM26.424 14.424C26.424 14.604 26.424 14.784 26.424 14.976L23.544 15.504C23.0779 15.5904 22.7065 15.943 22.596 16.404C22.3948 17.2522 22.0585 18.0625 21.6 18.804C21.3415 19.2016 21.3415 19.7143 21.6 20.112L23.256 22.512C23.0143 22.7896 22.7536 23.0503 22.476 23.292L20.076 21.636C19.6783 21.3776 19.1656 21.3776 18.768 21.636C18.0266 22.0946 17.2162 22.4309 16.368 22.632C15.9071 22.7425 15.5544 23.1139 15.468 23.58L14.952 26.4C14.568 26.4 14.232 26.4 13.848 26.4L13.32 23.52C13.2336 23.0539 12.8809 22.6825 12.42 22.572C11.5717 22.3708 10.7614 22.0345 10.02 21.576C9.62235 21.3175 9.10965 21.3175 8.712 21.576L6.312 23.232C6.03435 22.9904 5.77365 22.7296 5.532 22.452L7.188 20.052C7.44645 19.6543 7.44645 19.1416 7.188 18.744C6.72945 18.0026 6.39315 17.1922 6.192 16.344C6.08145 15.883 5.71005 15.5304 5.244 15.444L2.4 14.952C2.4 14.76 2.4 14.58 2.4 14.4C2.4 14.22 2.4 14.04 2.4 13.848L5.292 13.32C5.75805 13.2336 6.12945 12.8809 6.24 12.42C6.44115 11.5717 6.77745 10.7614 7.236 10.02C7.4733 9.621 7.45935 9.12105 7.2 8.736L5.544 6.336C5.78565 6.05835 6.04635 5.79765 6.324 5.556L8.736 7.2C9.13365 7.45845 9.64635 7.45845 10.044 7.2C10.7854 6.74145 11.5957 6.40515 12.444 6.204C12.9049 6.09345 13.2576 5.72205 13.344 5.256L13.848 2.4H14.952L15.48 5.28C15.5664 5.74605 15.919 6.11745 16.38 6.228C17.2282 6.42915 18.0385 6.76545 18.78 7.224C19.1776 7.48245 19.6903 7.48245 20.088 7.224L22.488 5.568C22.7656 5.80965 23.0263 6.07035 23.268 6.348L21.6 8.736C21.3415 9.13365 21.3415 9.64635 21.6 10.044C22.0585 10.7854 22.3948 11.5957 22.596 12.444C22.7065 12.9049 23.0779 13.2576 23.544 13.344L26.424 13.872C26.424 14.064 26.424 14.244 26.424 14.424Z" fill="#CDDD00"/>
<path d="M71.892 34.296C71.8325 33.7723 71.4381 33.3487 70.92 33.252L67.872 32.688C67.6958 32.1333 67.4709 31.5952 67.2 31.08L68.964 28.536C69.2781 28.1118 69.2781 27.5322 68.964 27.108C68.261 26.2167 67.4553 25.411 66.564 24.708C66.1398 24.3939 65.5602 24.3939 65.136 24.708L62.52 26.4C62.0048 26.1291 61.4667 25.9042 60.912 25.728L60.348 22.68C60.2513 22.1619 59.8277 21.7675 59.304 21.708C58.1726 21.564 57.0275 21.564 55.896 21.708C55.3724 21.7675 54.9488 22.1619 54.852 22.68L54.288 25.728C53.7333 25.9042 53.1953 26.1291 52.68 26.4L50.136 24.636C49.7118 24.3219 49.1322 24.3219 48.708 24.636C47.8167 25.339 47.0111 26.1447 46.308 27.036C45.9939 27.4602 45.9939 28.0398 46.308 28.464L48 31.08C47.7291 31.5952 47.5043 32.1333 47.328 32.688L44.28 33.252C43.7619 33.3487 43.3676 33.7723 43.308 34.296C43.164 35.4274 43.164 36.5725 43.308 37.704C43.3676 38.2276 43.7619 38.6512 44.28 38.748L47.328 39.312C47.5043 39.8667 47.7291 40.4047 48 40.92L46.236 43.464C45.9219 43.8882 45.9219 44.4678 46.236 44.892C46.9391 45.7833 47.7447 46.5889 48.636 47.292C49.0602 47.6061 49.6398 47.6061 50.064 47.292L52.68 45.6C53.1953 45.8709 53.7333 46.0957 54.288 46.272L54.852 49.32C54.9488 49.8381 55.3724 50.2324 55.896 50.292C57.0275 50.436 58.1726 50.436 59.304 50.292C59.8277 50.2324 60.2513 49.8381 60.348 49.32L60.912 46.272C61.4667 46.0957 62.0048 45.8709 62.52 45.6L65.064 47.364C65.4882 47.6781 66.0678 47.6781 66.492 47.364C67.3833 46.6609 68.189 45.8553 68.892 44.964C69.2061 44.5398 69.2061 43.9602 68.892 43.536L67.2 40.92C67.4709 40.4047 67.6958 39.8667 67.872 39.312L70.92 38.748C71.4381 38.6512 71.8325 38.2276 71.892 37.704C72.036 36.5725 72.036 35.4274 71.892 34.296ZM69.672 36C69.672 36.18 69.6 36.36 69.6 36.552L66.72 37.08C66.254 37.1664 65.8826 37.519 65.772 37.98C65.5709 38.8282 65.2346 39.6387 64.776 40.38C64.5176 40.7776 64.5176 41.2903 64.776 41.688L66.432 44.088C66.1904 44.3656 65.9297 44.6263 65.652 44.868L63.252 43.212C62.8544 42.9535 62.3417 42.9535 61.944 43.212C61.2026 43.6705 60.3923 44.0068 59.544 44.208C59.0831 44.3185 58.7304 44.6899 58.644 45.156L58.152 48H57.048L56.52 45.12C56.4336 44.6539 56.081 44.2825 55.62 44.172C54.7718 43.9708 53.9615 43.6345 53.22 43.176C52.8224 42.9175 52.3097 42.9175 51.912 43.176L49.512 44.832C49.2344 44.5903 48.9737 44.3296 48.732 44.052L50.388 41.652C50.6465 41.2543 50.6465 40.7416 50.388 40.344C49.9295 39.6025 49.5932 38.7922 49.392 37.944C49.2815 37.483 48.9101 37.1304 48.444 37.044L45.6 36.552C45.6 36.36 45.6 36.18 45.6 36C45.6 35.82 45.6 35.64 45.6 35.448L48.48 34.92C48.9461 34.8336 49.3175 34.4809 49.428 34.02C49.6292 33.1717 49.9655 32.3614 50.424 31.62C50.6825 31.2223 50.6825 30.7096 50.424 30.312L48.768 27.912C49.0097 27.6343 49.2704 27.3736 49.548 27.132L51.948 28.788C52.3457 29.0464 52.8584 29.0464 53.256 28.788C53.9975 28.3294 54.8078 27.9931 55.656 27.792C56.117 27.6814 56.4696 27.31 56.556 26.844L57.084 23.964C57.468 23.964 57.804 23.964 58.188 23.964L58.716 26.844C58.8024 27.31 59.1551 27.6814 59.616 27.792C60.4643 27.9931 61.2746 28.3294 62.016 28.788C62.4137 29.0464 62.9264 29.0464 63.324 28.788L65.724 27.132C66.0017 27.3736 66.2624 27.6343 66.504 27.912L64.848 30.312C64.5896 30.7096 64.5896 31.2223 64.848 31.62C65.3066 32.3614 65.6429 33.1717 65.844 34.02C65.9546 34.4809 66.326 34.8336 66.792 34.92L69.672 35.448C69.672 35.64 69.672 35.82 69.672 36Z" fill="#CDDD00"/>
<path d="M28.692 55.896C28.6324 55.3723 28.2381 54.9487 27.72 54.852L24.672 54.288C24.4957 53.7333 24.2709 53.1952 24 52.68L25.764 50.1359C26.0781 49.7117 26.0781 49.1321 25.764 48.708C25.0609 47.8167 24.2553 47.011 23.364 46.308C22.9398 45.9939 22.3602 45.9939 21.936 46.308L19.32 48C18.8048 47.729 18.2667 47.5042 17.712 47.3279L17.148 44.28C17.0513 43.7619 16.6276 43.3675 16.104 43.308C14.9725 43.164 13.8274 43.164 12.696 43.308C12.1723 43.3675 11.7487 43.7619 11.652 44.28L11.088 47.3279C10.5333 47.5042 9.99525 47.729 9.48 48L6.936 46.236C6.5118 45.9219 5.9322 45.9219 5.508 46.236C4.61655 46.939 3.81105 47.7446 3.108 48.6359C2.7939 49.0602 2.7939 49.6398 3.108 50.064L4.8 52.68C4.5291 53.1952 4.30425 53.7333 4.128 54.288L1.08 54.852C0.5619 54.9487 0.16755 55.3723 0.108 55.896C-0.036 57.0274 -0.036 58.1725 0.108 59.304C0.16755 59.8276 0.5619 60.2512 1.08 60.348L4.128 60.9119C4.30425 61.4666 4.5291 62.0047 4.8 62.52L3.036 65.0639C2.7219 65.4882 2.7219 66.0677 3.036 66.492C3.73905 67.3833 4.5447 68.1889 5.436 68.892C5.8602 69.2061 6.4398 69.2061 6.864 68.892L9.48 67.2C9.99525 67.4708 10.5333 67.6957 11.088 67.872L11.652 70.92C11.7487 71.438 12.1723 71.8324 12.696 71.892C13.8274 72.0359 14.9725 72.0359 16.104 71.892C16.6276 71.8324 17.0513 71.438 17.148 70.92L17.712 67.872C18.2667 67.6957 18.8048 67.4708 19.32 67.2L21.864 68.964C22.2882 69.2781 22.8678 69.2781 23.292 68.964C24.1833 68.2609 24.9889 67.4552 25.692 66.5639C26.0061 66.1397 26.0061 65.5602 25.692 65.1359L24 62.52C24.2709 62.0047 24.4957 61.4666 24.672 60.9119L27.72 60.348C28.2381 60.2512 28.6324 59.8276 28.692 59.304C28.836 58.1725 28.836 57.0274 28.692 55.896ZM26.472 57.6C26.472 57.78 26.472 57.9599 26.472 58.152L23.592 58.68C23.1259 58.7664 22.7546 59.119 22.644 59.58C22.4429 60.4282 22.1066 61.2385 21.648 61.98C21.3896 62.3776 21.3896 62.8903 21.648 63.288L23.304 65.688C23.0623 65.9656 22.8016 66.2263 22.524 66.4679L20.124 64.812C19.7264 64.5535 19.2136 64.5535 18.816 64.812C18.0746 65.2705 17.2642 65.6068 16.416 65.808C15.955 65.9185 15.6024 66.2899 15.516 66.756L14.952 69.6H13.848L13.32 66.7199C13.2336 66.2539 12.8809 65.8825 12.42 65.7719C11.5717 65.5708 10.7614 65.2345 10.02 64.7759C9.62235 64.5175 9.10965 64.5175 8.712 64.7759L6.312 66.432C6.03435 66.1903 5.77365 65.9296 5.532 65.6519L7.188 63.2519C7.44645 62.8543 7.44645 62.3416 7.188 61.944C6.72945 61.2025 6.39315 60.3922 6.192 59.5439C6.08145 59.083 5.71005 58.7304 5.244 58.644L2.4 58.152C2.4 57.9599 2.4 57.78 2.4 57.6C2.4 57.42 2.4 57.24 2.4 57.048L5.28 56.52C5.74605 56.4336 6.11745 56.0809 6.228 55.6199C6.42915 54.7717 6.76545 53.9614 7.224 53.2199C7.48245 52.8223 7.48245 52.3096 7.224 51.9119L5.568 49.5119C5.80965 49.2343 6.07035 48.9736 6.348 48.732L8.748 50.388C9.14565 50.6464 9.65835 50.6464 10.056 50.388C10.7975 49.9294 11.6077 49.5931 12.456 49.392C12.917 49.2814 13.2696 48.91 13.356 48.444L13.884 45.564H14.988L15.516 48.444C15.6024 48.91 15.955 49.2814 16.416 49.392C17.2642 49.5931 18.0746 49.9294 18.816 50.388C19.2136 50.6464 19.7264 50.6464 20.124 50.388L22.524 48.732C22.8016 48.9736 23.0623 49.2343 23.304 49.5119L21.648 51.9119C21.3896 52.3096 21.3896 52.8223 21.648 53.2199C22.1066 53.9614 22.4429 54.7717 22.644 55.6199C22.7546 56.0809 23.1259 56.4336 23.592 56.52L26.472 57.048C26.472 57.24 26.472 57.42 26.472 57.6Z" fill="#CDDD00"/>
<path d="M29.319 7.32119L28.2866 9.48767L30.453 10.5202L31.4855 8.35367L29.319 7.32119Z" fill="#CDDD00"/>
<path d="M42.3178 13.5049L41.286 15.6719L43.453 16.7036L44.4848 14.5367L42.3178 13.5049Z" fill="#CDDD00"/>
<path d="M33.6488 9.38748L32.617 11.5544L34.784 12.5862L35.8157 10.4192L33.6488 9.38748Z" fill="#CDDD00"/>
<path d="M50.9814 17.6324L49.9496 19.7993L52.1166 20.8311L53.1484 18.6641L50.9814 17.6324Z" fill="#CDDD00"/>
<path d="M46.6557 15.5688L45.624 17.7357L47.7909 18.7675L48.8227 16.6005L46.6557 15.5688Z" fill="#CDDD00"/>
<path d="M37.9918 11.4406L36.96 13.6075L39.127 14.6393L40.1587 12.4723L37.9918 11.4406Z" fill="#CDDD00"/>
<path d="M35.364 35.6759L34.212 33.5759L32.112 34.7279L32.532 35.4959L31.68 37.2719L33.852 38.3039L34.884 36.1439L34.692 36.0479L35.364 35.6759Z" fill="#CDDD00"/>
<path d="M24.0423 30.9932L23.0098 33.1597L25.1763 34.1921L26.2088 32.0257L24.0423 30.9932Z" fill="#CDDD00"/>
<path d="M37.0519 37.1785L36.0195 39.345L38.186 40.3775L39.2184 38.211L37.0519 37.1785Z" fill="#CDDD00"/>
<path d="M41.3907 39.2439L40.3582 41.4104L42.5247 42.4429L43.5572 40.2764L41.3907 39.2439Z" fill="#CDDD00"/>
<path d="M19.7155 28.9278L18.683 31.0942L20.8495 32.1267L21.882 29.9602L19.7155 28.9278Z" fill="#CDDD00"/>
<path d="M42.9399 54.4556L40.837 55.6122L41.9936 57.7151L44.0965 56.5585L42.9399 54.4556Z" fill="#CDDD00"/>
<path d="M51.3595 49.8192L49.2569 50.9762L50.4139 53.0788L52.5166 51.9218L51.3595 49.8192Z" fill="#CDDD00"/>
<path d="M38.746 56.7562L36.6433 57.9132L37.8004 60.0158L39.903 58.8588L38.746 56.7562Z" fill="#CDDD00"/>
<path d="M47.1577 52.1353L45.0546 53.2916L46.2109 55.3947L48.3141 54.2384L47.1577 52.1353Z" fill="#CDDD00"/>
<path d="M30.3236 61.3906L28.2207 62.5471L29.3773 64.65L31.4801 63.4934L30.3236 61.3906Z" fill="#CDDD00"/>
<path d="M34.5282 59.0761L32.4255 60.2332L33.5826 62.3358L35.6852 61.1788L34.5282 59.0761Z" fill="#CDDD00"/>
<path d="M30 35.8921L29.58 36.1201L30.552 34.0801L28.38 33.0481L27.348 35.2081L29.436 36.2041L27.9 37.0441L29.052 39.1441L31.164 37.9921L30 35.8921Z" fill="#CDDD00"/>
<path d="M42.6137 28.9461L40.5109 30.1027L41.6674 32.2055L43.7703 31.049L42.6137 28.9461Z" fill="#CDDD00"/>
<path d="M21.5893 40.5043L19.4867 41.6614L20.6437 43.764L22.7464 42.607L21.5893 40.5043Z" fill="#CDDD00"/>
<path d="M25.786 38.2099L23.6829 39.366L24.8389 41.4691L26.9421 40.313L25.786 38.2099Z" fill="#CDDD00"/>
<path d="M38.4179 31.2591L36.315 32.4156L37.4716 34.5185L39.5744 33.362L38.4179 31.2591Z" fill="#CDDD00"/>
<path d="M14.4 8.40002C11.0864 8.40002 8.40002 11.0864 8.40002 14.4C8.40002 17.7137 11.0864 20.4 14.4 20.4C17.7137 20.4 20.4 17.7137 20.4 14.4C20.4 11.0864 17.7137 8.40002 14.4 8.40002ZM14.4 18C12.4118 18 10.8 16.3883 10.8 14.4C10.8 12.4118 12.4118 10.8 14.4 10.8C16.3883 10.8 18 12.4118 18 14.4C18 16.3883 16.3883 18 14.4 18Z" fill="#CDDD00"/>
<path d="M57.5999 30.0001C54.2863 30.0001 51.5999 32.6865 51.5999 36.0001C51.5999 39.3138 54.2863 42.0001 57.5999 42.0001C60.9136 42.0001 63.5999 39.3138 63.5999 36.0001C63.5999 32.6865 60.9136 30.0001 57.5999 30.0001ZM57.5999 39.6001C55.6117 39.6001 53.9999 37.9884 53.9999 36.0001C53.9999 34.0119 55.6117 32.4001 57.5999 32.4001C59.5882 32.4001 61.1999 34.0119 61.1999 36.0001C61.1999 37.9884 59.5882 39.6001 57.5999 39.6001Z" fill="#CDDD00"/>
<path d="M14.4 51.6C11.0864 51.6 8.40002 54.2863 8.40002 57.6C8.40002 60.9136 11.0864 63.6 14.4 63.6C17.7137 63.6 20.4 60.9136 20.4 57.6C20.4 54.2862 17.7137 51.6 14.4 51.6ZM14.4 61.2C12.4118 61.2 10.8 59.5882 10.8 57.6C10.8 55.6117 12.4118 54 14.4 54C16.3883 54 18 55.6117 18 57.6C18 59.5882 16.3883 61.2 14.4 61.2Z" fill="#CDDD00"/>
</svg>
