<svg width="24" height="30" viewBox="0 0 24 30" fill="none" xmlns="http://www.w3.org/2000/svg">
<path d="M22.7949 6.30362L22.3995 5.90483L17.2226 0.683276L16.8272 0.284483C16.6482 0.103966 16.4 0 16.1462 0H1.26308C0.654872 0 0 0.473793 0 1.51345V20.1724V28.726V28.9655C0 29.3984 0.431795 29.8205 0.942564 29.9534C0.968205 29.9602 0.992821 29.97 1.01949 29.9752C1.09949 29.9912 1.18103 30 1.26308 30H21.8138C21.8959 30 21.9774 29.9912 22.0574 29.9752C22.0841 29.97 22.1087 29.9602 22.1344 29.9534C22.6451 29.8205 23.0769 29.3984 23.0769 28.9655V28.726V20.1724V7.23C23.0769 6.83328 23.0297 6.54052 22.7949 6.30362ZM21.2487 6.2069H16.9231V1.84397L21.2487 6.2069ZM1.26308 28.9655C1.22667 28.9655 1.19385 28.9521 1.16154 28.9402C1.08154 28.9019 1.02564 28.8212 1.02564 28.726V21.2069H22.0513V28.726C22.0513 28.8212 21.9954 28.9014 21.9154 28.9402C21.8831 28.9521 21.8503 28.9655 21.8138 28.9655H1.26308ZM1.02564 20.1724V1.51345C1.02564 1.40121 1.04256 1.03448 1.26308 1.03448H15.9272C15.9103 1.09966 15.8974 1.1669 15.8974 1.23672V7.24138H21.8508C21.92 7.24138 21.9862 7.22845 22.0508 7.21138C22.0508 7.21914 22.0513 7.22224 22.0513 7.23V20.1724H1.02564Z" fill="black"/>
<path d="M8.58204 23.4827C8.3646 23.252 8.09127 23.0663 7.76152 22.9277C7.43178 22.7891 7.04973 22.7192 6.61537 22.7192H5.05896V27.931H7.01486C7.07999 27.931 7.1805 27.9227 7.3164 27.9061C7.45178 27.8896 7.60152 27.8523 7.76511 27.7929C7.9287 27.7339 8.09793 27.6454 8.27332 27.5275C8.4487 27.4096 8.60614 27.2482 8.74665 27.0429C8.88717 26.8375 9.00255 26.583 9.09383 26.2789C9.18511 25.9748 9.23075 25.608 9.23075 25.1792C9.23075 24.8679 9.17691 24.5648 9.06973 24.2704C8.96204 23.9767 8.79947 23.7139 8.58204 23.4827ZM7.9687 26.7568C7.7164 27.1246 7.30511 27.3082 6.73486 27.3082H5.9005V23.3622H6.39127C6.79332 23.3622 7.1205 23.4154 7.37281 23.5215C7.62511 23.6275 7.82511 23.7667 7.97229 23.9389C8.11947 24.1111 8.21845 24.303 8.27024 24.5151C8.32152 24.7272 8.34717 24.9418 8.34717 25.1585C8.34717 25.8563 8.22101 26.3896 7.9687 26.7568Z" fill="black"/>
<path d="M13.7256 23.3134C13.5318 23.0915 13.3051 22.9234 13.0456 22.8076C12.7861 22.6917 12.502 22.6343 12.1938 22.6343C11.8856 22.6343 11.6015 22.6917 11.342 22.8076C11.0825 22.9234 10.8559 23.0915 10.662 23.3134C10.4682 23.5353 10.3159 23.812 10.2061 24.1441C10.0964 24.4767 10.0415 24.862 10.0415 25.3001C10.0415 25.7382 10.0964 26.1251 10.2061 26.4598C10.3159 26.7944 10.4677 27.0727 10.662 27.2941C10.8559 27.516 11.0825 27.6831 11.342 27.7963C11.6015 27.9096 11.8856 27.966 12.1938 27.966C12.502 27.966 12.7861 27.9096 13.0456 27.7963C13.3051 27.6831 13.5318 27.516 13.7256 27.2941C13.9195 27.0722 14.0712 26.7944 14.1815 26.4598C14.2912 26.1251 14.3461 25.7382 14.3461 25.3001C14.3461 24.862 14.2912 24.4762 14.1815 24.1441C14.0712 23.812 13.9195 23.5353 13.7256 23.3134ZM13.3784 26.2234C13.3082 26.4753 13.2112 26.6796 13.0877 26.8353C12.9636 26.991 12.8236 27.1032 12.6671 27.171C12.5102 27.2393 12.3456 27.2734 12.1728 27.2734C12.0046 27.2734 11.8441 27.2372 11.6923 27.1638C11.5405 27.0903 11.4046 26.9755 11.2856 26.8172C11.1666 26.6589 11.0728 26.4557 11.0051 26.2053C10.9374 25.9555 10.901 25.6539 10.8964 25.3001C10.901 24.937 10.9384 24.6308 11.0087 24.381C11.0789 24.1312 11.1759 23.9274 11.2995 23.7691C11.423 23.6108 11.5636 23.4996 11.72 23.4334C11.8764 23.3672 12.041 23.3346 12.2143 23.3346C12.3825 23.3346 12.5425 23.3698 12.6948 23.4407C12.8466 23.5115 12.9825 23.6269 13.1015 23.7872C13.2205 23.9476 13.3143 24.1513 13.382 24.3991C13.4497 24.6469 13.4861 24.9474 13.4907 25.3007C13.4856 25.6638 13.4487 25.9715 13.3784 26.2234Z" fill="black"/>
<path d="M16.6985 23.7696C16.8221 23.6113 16.9626 23.5001 17.119 23.4339C17.2754 23.3677 17.44 23.3351 17.6134 23.3351C17.7677 23.3351 17.9159 23.3661 18.0585 23.4271C18.2011 23.4882 18.3308 23.5875 18.4477 23.724L19.0298 23.2006C18.838 23.0123 18.6206 22.8706 18.378 22.7765C18.1349 22.6818 17.8734 22.6353 17.5929 22.6353C17.2888 22.6353 17.0062 22.6927 16.7447 22.8085C16.4826 22.9244 16.2549 23.0925 16.0611 23.3144C15.8672 23.5363 15.7149 23.813 15.6052 24.1451C15.4954 24.4777 15.4406 24.863 15.4406 25.3011C15.4406 25.7392 15.4954 26.1261 15.6052 26.4608C15.7149 26.7954 15.8667 27.0737 16.0611 27.2951C16.2549 27.517 16.4816 27.684 16.7411 27.7973C17.0006 27.9106 17.2847 27.967 17.5929 27.967C17.8734 27.967 18.1349 27.9199 18.378 27.8258C18.6211 27.7311 18.838 27.5899 19.0298 27.4016L18.4477 26.8854C18.3262 27.0225 18.1918 27.1213 18.0447 27.1823C17.8975 27.2434 17.7395 27.2744 17.5713 27.2744C17.4031 27.2744 17.2426 27.2382 17.0908 27.1647C16.939 27.0913 16.8031 26.9765 16.6841 26.8182C16.5652 26.6599 16.4713 26.4566 16.4036 26.2063C16.3359 25.9565 16.2995 25.6549 16.2949 25.3011C16.2995 24.938 16.337 24.6318 16.4072 24.382C16.4775 24.1321 16.5744 23.9278 16.6985 23.7696Z" fill="black"/>
<path d="M3.58972 7.24151H6.66665C6.94972 7.24151 7.17947 7.00979 7.17947 6.72427C7.17947 6.43876 6.94972 6.20703 6.66665 6.20703H3.58972C3.30665 6.20703 3.0769 6.43876 3.0769 6.72427C3.0769 7.00979 3.30665 7.24151 3.58972 7.24151Z" fill="black"/>
<path d="M3.58972 9.82745H8.20511C8.48819 9.82745 8.71793 9.59573 8.71793 9.31021C8.71793 9.02469 8.48819 8.79297 8.20511 8.79297H3.58972C3.30665 8.79297 3.0769 9.02469 3.0769 9.31021C3.0769 9.59573 3.30665 9.82745 3.58972 9.82745Z" fill="black"/>
<path d="M10.2565 9.82782C10.3898 9.82782 10.5231 9.77092 10.6206 9.67782C10.7129 9.57955 10.7693 9.44506 10.7693 9.31058C10.7693 9.1761 10.7129 9.04162 10.6206 8.94334C10.4308 8.75196 10.0821 8.75196 9.89237 8.94334C9.80006 9.04162 9.74365 9.1761 9.74365 9.31058C9.74365 9.44506 9.80006 9.57955 9.89237 9.67782C9.98981 9.77092 10.1231 9.82782 10.2565 9.82782Z" fill="black"/>
<path d="M12.3076 9.82745H16.4102C16.6933 9.82745 16.923 9.59573 16.923 9.31021C16.923 9.02469 16.6933 8.79297 16.4102 8.79297H12.3076C12.0245 8.79297 11.7948 9.02469 11.7948 9.31021C11.7948 9.59573 12.0245 9.82745 12.3076 9.82745Z" fill="black"/>
<path d="M3.22562 16.7021C3.13331 16.8004 3.0769 16.9349 3.0769 17.0694C3.0769 17.2039 3.13331 17.3383 3.22562 17.4366C3.32306 17.5297 3.45639 17.5866 3.58972 17.5866C3.72306 17.5866 3.85639 17.5297 3.95383 17.4366C4.04614 17.3383 4.10255 17.2039 4.10255 17.0694C4.10255 16.9297 4.04614 16.8004 3.95383 16.7021C3.76408 16.5107 3.41537 16.5107 3.22562 16.7021Z" fill="black"/>
<path d="M9.74356 16.5518H5.64099C5.35792 16.5518 5.12817 16.7835 5.12817 17.069C5.12817 17.3545 5.35792 17.5862 5.64099 17.5862H9.74356C10.0266 17.5862 10.2564 17.3545 10.2564 17.069C10.2564 16.7835 10.0266 16.5518 9.74356 16.5518Z" fill="black"/>
<path d="M19.4872 8.79297H18.4616C18.1785 8.79297 17.9487 9.02469 17.9487 9.31021C17.9487 9.59573 18.1785 9.82745 18.4616 9.82745H19.4872C19.7703 9.82745 20 9.59573 20 9.31021C20 9.02469 19.7703 8.79297 19.4872 8.79297Z" fill="black"/>
<path d="M3.58972 12.4139H14.8718C15.1549 12.4139 15.3846 12.1822 15.3846 11.8966C15.3846 11.6111 15.1549 11.3794 14.8718 11.3794H3.58972C3.30665 11.3794 3.0769 11.6111 3.0769 11.8966C3.0769 12.1822 3.30665 12.4139 3.58972 12.4139Z" fill="black"/>
<path d="M19.4872 11.3794H16.4103C16.1272 11.3794 15.8975 11.6111 15.8975 11.8966C15.8975 12.1822 16.1272 12.4139 16.4103 12.4139H19.4872C19.7703 12.4139 20 12.1822 20 11.8966C20 11.6111 19.7703 11.3794 19.4872 11.3794Z" fill="black"/>
<path d="M3.58972 15.0003H5.64101C5.92408 15.0003 6.15383 14.7686 6.15383 14.4831C6.15383 14.1975 5.92408 13.9658 5.64101 13.9658H3.58972C3.30665 13.9658 3.0769 14.1975 3.0769 14.4831C3.0769 14.7686 3.30665 15.0003 3.58972 15.0003Z" fill="black"/>
<path d="M12.8205 13.9658H7.69226C7.40919 13.9658 7.17944 14.1975 7.17944 14.4831C7.17944 14.7686 7.40919 15.0003 7.69226 15.0003H12.8205C13.1035 15.0003 13.3333 14.7686 13.3333 14.4831C13.3333 14.1975 13.1035 13.9658 12.8205 13.9658Z" fill="black"/>
<path d="M19.4872 13.9658H14.8718C14.5888 13.9658 14.359 14.1975 14.359 14.4831C14.359 14.7686 14.5888 15.0003 14.8718 15.0003H19.4872C19.7703 15.0003 20 14.7686 20 14.4831C20 14.1975 19.7703 13.9658 19.4872 13.9658Z" fill="black"/>
</svg>
