<svg width="18" height="18" viewBox="0 0 18 18" fill="none" xmlns="http://www.w3.org/2000/svg">
<path d="M16.7933 4.48233C15.9885 3.10352 14.8968 2.01182 13.5179 1.20704C12.1388 0.40229 10.6333 0 9.00029 0C7.36743 0 5.8615 0.40229 4.48264 1.20704C3.1037 2.0117 2.01199 3.10339 1.20716 4.48233C0.402292 5.86135 0 7.36728 0 9C0 10.6328 0.402415 12.1385 1.20704 13.5176C2.01183 14.8964 3.10353 15.9881 4.48247 16.793C5.8615 17.5977 7.36731 18 9.00012 18C10.6329 18 12.1389 17.5977 13.5179 16.793C14.8967 15.9884 15.9884 14.8964 16.7931 13.5176C17.5977 12.1386 18 10.6327 18 9C18 7.36711 17.5977 5.86114 16.7933 4.48233ZM14.5197 12.1992C13.9494 13.1757 13.176 13.9493 12.1995 14.5196C11.223 15.0899 10.1566 15.3748 9.00016 15.3748C7.84402 15.3748 6.77756 15.0899 5.80091 14.5196C4.82439 13.9493 4.051 13.1757 3.4807 12.1992C2.91029 11.2226 2.62518 10.1562 2.62518 9C2.62518 7.8437 2.91041 6.77729 3.4807 5.80076C4.05087 4.82424 4.82447 4.05069 5.80091 3.48044C6.77744 2.91011 7.84386 2.62505 9.00016 2.62505C10.1566 2.62505 11.223 2.91011 12.1995 3.48044C13.176 4.05073 13.9495 4.82424 14.5197 5.80076C15.09 6.77729 15.375 7.8437 15.375 9C15.375 10.1562 15.09 11.2226 14.5197 12.1992Z" fill="#CDDD00"/>
<path d="M9.65628 4.99186C9.56262 4.91375 9.46879 4.875 9.37504 4.875C9.26548 4.875 9.17584 4.91005 9.10536 4.98041C9.03534 5.05055 9.00008 5.14044 9.00008 5.24995V7.50001H4.87508C4.77357 7.50001 4.68565 7.53695 4.61144 7.61132C4.53727 7.68549 4.50012 7.77341 4.50012 7.875V10.1249C4.50012 10.2265 4.53727 10.3144 4.61144 10.3886C4.68569 10.4629 4.77345 10.4997 4.87508 10.4997H9.0002V12.75C9.0002 12.8515 9.03727 12.9394 9.11123 13.0136C9.18573 13.0879 9.27361 13.1247 9.37504 13.1247C9.48447 13.1247 9.57436 13.0898 9.64446 13.0195L13.3946 9.26953C13.465 9.1993 13.5001 9.10941 13.5001 9.00007C13.5001 8.89064 13.465 8.80087 13.3945 8.73035L9.65628 4.99186Z" fill="#CDDD00"/>
</svg>
