<svg width="65" height="65" viewBox="0 0 65 65" fill="none" xmlns="http://www.w3.org/2000/svg">
<path d="M32.5 0C14.5508 0 0 14.5508 0 32.5C0 50.4492 14.5508 65 32.5 65C50.4492 65 65 50.4492 65 32.5C64.9797 14.5592 50.4408 0.0203125 32.5 0ZM32.5 62.8333C15.7473 62.8333 2.16667 49.2527 2.16667 32.5C2.16667 15.7473 15.7473 2.16667 32.5 2.16667C49.2527 2.16667 62.8333 15.7473 62.8333 32.5C62.8145 49.2448 49.2448 62.8145 32.5 62.8333Z" fill="#CDDD00"/>
<path d="M32.5 4.33325C26.5169 4.33325 21.6667 9.18347 21.6667 15.1666C21.6736 21.1469 26.5197 25.993 32.5 25.9999C38.4831 25.9999 43.3333 21.1497 43.3333 15.1666C43.3333 9.18347 38.4831 4.33325 32.5 4.33325ZM35.75 23.1952C33.6669 24.046 31.3331 24.046 29.25 23.1952V19.6104C29.2511 18.3535 30.2697 17.3346 31.5268 17.3333H33.4734C34.7303 17.3346 35.7489 18.3535 35.75 19.6104V23.1952ZM30.3333 12.9999C30.3333 11.8032 31.3033 10.8333 32.5 10.8333C33.6967 10.8333 34.6667 11.8032 34.6667 12.9999C34.6667 14.1966 33.6967 15.1666 32.5 15.1666C31.304 15.1652 30.3347 14.1959 30.3333 12.9999ZM37.9167 21.9212V19.6104C37.9123 18.0569 37.0948 16.6192 35.762 15.8212C37.3375 14.0196 37.1541 11.2819 35.3525 9.70645C33.551 8.13101 30.8132 8.31437 29.2378 10.116C27.8093 11.7495 27.8093 14.1877 29.2378 15.8212C27.905 16.6192 27.0875 18.0571 27.0832 19.6104V21.9212C23.3487 18.9336 22.7432 13.4843 25.7308 9.74992C27.3758 7.69375 29.8668 6.49775 32.5 6.49992C37.2825 6.49586 41.1626 10.3696 41.1667 15.152C41.1688 17.7851 39.9728 20.2763 37.9167 21.9212Z" fill="#CDDD00"/>
<path d="M32.5 38.9998C26.5169 38.9998 21.6667 43.85 21.6667 49.8331C21.6667 55.8162 26.5169 60.6664 32.5 60.6664C38.4831 60.6664 43.3333 55.8162 43.3333 49.8331C43.3264 43.8528 38.4803 39.0067 32.5 38.9998ZM35.75 57.8617C33.6669 58.7125 31.3331 58.7125 29.25 57.8617V54.2769C29.2511 53.02 30.2697 52.0011 31.5268 51.9998H33.4734C34.7304 52.0011 35.7489 53.02 35.75 54.2769V57.8617ZM30.3333 47.6664C30.3333 46.4697 31.3033 45.4998 32.5 45.4998C33.6967 45.4998 34.6667 46.4697 34.6667 47.6664C34.6667 48.8631 33.6967 49.8331 32.5 49.8331C31.304 49.8317 30.3347 48.8624 30.3333 47.6664ZM39.2654 55.2389C38.8669 55.7367 38.4145 56.1891 37.9167 56.5877V54.2769C37.9123 52.7234 37.0948 51.2857 35.762 50.4877C37.3375 48.6861 37.1541 45.9484 35.3525 44.373C33.551 42.7975 30.8132 42.9809 29.2378 44.7825C27.8093 46.416 27.8093 48.8542 29.2378 50.4877C27.905 51.2857 27.0875 52.7236 27.0832 54.2769V56.5877C23.3468 53.5962 22.7429 48.142 25.7344 44.4056C28.7259 40.6692 34.1801 40.0653 37.9165 43.0568C41.6531 46.0485 42.2569 51.5025 39.2654 55.2389Z" fill="#CDDD00"/>
<path d="M49.8334 21.6665C43.8531 21.6734 39.0069 26.5196 39 32.4998C39 38.483 43.8503 43.3332 49.8334 43.3332C55.8165 43.3332 60.6667 38.483 60.6667 32.4998C60.6667 26.5167 55.8165 21.6665 49.8334 21.6665ZM53.0834 40.5284C51.0003 41.3792 48.6665 41.3792 46.5834 40.5284V36.9437C46.5844 35.6867 47.6031 34.6679 48.8601 34.6665H50.8067C52.0638 34.6679 53.0823 35.6867 53.0835 36.9437L53.0834 40.5284ZM47.6667 30.3332C47.6667 29.1365 48.6367 28.1665 49.8334 28.1665C51.03 28.1665 52 29.1365 52 30.3332C52 31.5299 51.03 32.4998 49.8334 32.4998C48.6374 32.4985 47.6681 31.5292 47.6667 30.3332ZM55.25 39.2544V36.9437C55.2457 35.3902 54.4282 33.9525 53.0954 33.1544C54.6709 31.3529 54.4875 28.6151 52.6859 27.0397C50.8843 25.4643 48.1466 25.6476 46.5712 27.4492C45.1427 29.0827 45.1427 31.5209 46.5712 33.1544C45.2384 33.9525 44.4209 35.3903 44.4166 36.9437V39.2544C40.6842 36.2609 40.0851 30.8085 43.0786 27.0761C46.0722 23.3438 51.5246 22.7447 55.2569 25.7382C57.3081 27.3833 58.5011 29.8706 58.5 32.4998C58.4992 35.1283 57.3034 37.6136 55.25 39.2544Z" fill="#CDDD00"/>
<path d="M15.1666 21.6665C9.18353 21.6665 4.33331 26.5167 4.33331 32.4998C4.33331 38.483 9.18353 43.3332 15.1666 43.3332C21.1469 43.3263 25.9931 38.4801 26 32.4998C26 26.5167 21.1498 21.6665 15.1666 21.6665ZM18.4166 40.5284C16.3335 41.3792 13.9998 41.3792 11.9166 40.5284V36.9437C11.9177 35.6867 12.9363 34.6679 14.1934 34.6665H16.14C17.3971 34.6679 18.4156 35.6867 18.4168 36.9437L18.4166 40.5284ZM13 30.3332C13 29.1365 13.97 28.1665 15.1666 28.1665C16.3633 28.1665 17.3333 29.1365 17.3333 30.3332C17.3333 31.5299 16.3633 32.4998 15.1666 32.4998C13.9706 32.4985 13.0013 31.5292 13 30.3332ZM21.9321 37.9057C21.5335 38.4035 21.0811 38.8559 20.5833 39.2544V36.9437C20.579 35.3902 19.7615 33.9525 18.4287 33.1544C20.0041 31.3529 19.8208 28.6151 18.0192 27.0397C16.2176 25.4643 13.4799 25.6476 11.9045 27.4492C10.4759 29.0827 10.4759 31.5209 11.9045 33.1544C10.5717 33.9525 9.75418 35.3903 9.74984 36.9437V39.2544C6.01343 36.2629 5.4096 30.8088 8.40109 27.0723C11.3926 23.3359 16.8468 22.7321 20.5832 25.7236C24.3197 28.7152 24.9236 34.1693 21.9321 37.9057Z" fill="#CDDD00"/>
</svg>
