<svg width="65" height="65" viewBox="0 0 65 65" fill="none" xmlns="http://www.w3.org/2000/svg">
<path d="M65 18.9583V0H46.0417V6.77083H18.9583V0H0V18.9583H6.77083V46.0417H0V65H18.9583V58.2292H46.0417V65H65V46.0417H58.2292V18.9583H65ZM10.5 9.5L7.5 13.5417L13.5417 6.77083L7.5 5.41667L9 9.5L12.1875 13.5417V9.5H10.5ZM13.5417 52.8125V58.2292V59.5833H5.41667L15.5 60L6.77083 51.4583L13.5417 59.9191L14.5 50L13.5417 52.8125ZM46.0417 52.8125H18.9583V46.0417H12.1875V18.9583H18.9583V12.1875H46.0417V18.9583H52.8125V46.0417H46.0417V52.8125ZM39 56.5L59.5833 59.5833L62.5 48L51.4583 58.2292V52.8125L56.5 57.5L60.5 54L58.2292 51.4583L39 56.5ZM52.8125 13.5417L62.5 3L51.4583 12.1875V6.77083V5.41667L50 15L59.5833 13.5417H58.2292H52.8125Z" fill="#CDDD00"/>
</svg>
