<svg width="27" height="24" viewBox="0 0 27 24" fill="none" xmlns="http://www.w3.org/2000/svg">
<path d="M25.9968 20.0804C25.992 18.9302 25.1853 18.9026 24.2214 18.5171L19.7214 16.7147C19.6428 16.6841 19.566 16.6514 19.4898 16.6175V16.6157C18.6897 16.2536 17.9835 15.7496 17.7246 15.3953L17.7144 15.3842L17.7114 15.3782C17.6964 15.3554 17.6805 15.332 17.6673 15.3095L17.6568 15.2909L17.655 15.2861L17.6457 15.2747V15.2741C17.526 15.0935 17.4048 15.0131 17.3022 15.0479L17.2959 15.0506L17.2929 15.0515L17.2923 15.0521L17.2863 15.0545L17.2821 15.0554L17.2764 15.0608C17.1549 15.1241 17.1789 15.0545 17.1297 14.9204C17.0079 14.5916 16.8069 13.9652 16.7763 13.8734C16.7295 13.7018 16.6041 14.144 16.6326 13.667L16.6836 12.8033C16.7667 12.7142 16.8336 12.6416 16.8792 12.5914C17.1723 12.256 17.1927 11.3704 17.3394 11.1544C17.4864 10.9381 17.781 10.8916 18.0744 9.88631C18.3684 8.8801 18.7269 7.44338 18.3489 7.41998C18.2559 7.41368 18.1509 7.47398 18.0423 7.56968C18.1086 7.20038 18.2487 6.36247 18.2802 5.74416C18.3225 4.92965 18.1872 2.84072 17.724 2.07541C17.4345 1.5969 16.8501 1.1229 16.2678 0.753294C15.9186 0.530691 15.5706 0.347089 15.2862 0.221987C14.4381 -0.154218 11.7642 0.0185844 10.8588 0.221987C9.8271 0.45299 9.1041 1.1004 8.6421 1.86601C8.1807 2.63252 7.9758 4.92995 8.016 5.74446C8.0355 6.10986 8.2542 6.72637 8.3097 7.10258C8.3412 7.29878 8.3703 7.30028 8.3949 7.44068C8.3562 7.42598 8.319 7.41788 8.2842 7.42028C7.9059 7.44368 8.2635 8.8804 8.5572 9.88661C8.8518 10.8919 9.1446 10.9384 9.2922 11.1547C9.4392 11.3707 9.4599 12.256 9.7548 12.5918C9.8013 12.6449 9.8721 12.7226 9.96 12.8159L10.0161 13.5203L10.1151 13.9127C10.0698 13.7999 9.9804 13.7273 9.9384 13.8743C9.8118 14.2586 9.6852 14.6435 9.5586 15.0284C9.5454 15.0098 9.5247 14.9972 9.501 14.9957C9.3783 14.8877 9.2136 14.9816 9.0636 15.2315C8.8413 15.602 8.1054 16.1351 7.2519 16.5203L7.2399 16.5665L7.2279 16.6121L7.2234 16.6304C7.1559 16.6607 7.0887 16.6889 7.02 16.7159L2.5203 18.5177C1.5576 18.9032 0.75 18.9308 0.7449 20.081L0 24H27L25.9968 20.0804Z" fill="white"/>
</svg>
